/* XPM */
static char *result[] = {
/* columns rows colors chars-per-pixel */
"128 128 48 1 ",
"  c #5C261B",
". c #5E281B",
"X c #622D1A",
"o c #66311A",
"O c #6A351A",
"+ c #6E3A1A",
"@ c #723E1A",
"# c #754119",
"$ c #794619",
"% c #7D4A19",
"& c #804E19",
"* c #845319",
"= c #885718",
"- c #8C5B18",
"; c #905F18",
": c #966617",
"> c #976817",
", c #9B6C17",
"< c #936418",
"1 c #976818",
"2 c #986918",
"3 c #9F7117",
"4 c #A27417",
"5 c #A67917",
"6 c #AA7D17",
"7 c #AE8116",
"8 c #B28516",
"9 c #B68A16",
"0 c #B98E16",
"q c #BD9216",
"w c #C19615",
"e c #C59B15",
"r c #C89F15",
"t c #CCA315",
"y c #D0A715",
"u c #D4AB14",
"i c #D7B014",
"p c #DBB414",
"a c #DFB814",
"s c #E2BC14",
"d c #E7C113",
"f c #EBC513",
"g c #EEC913",
"h c #F2CD13",
"j c #F6D212",
"k c #FAD612",
"l c #FEDB12",
"z c None",
/* pixels */
"zzzzzzzzzzzzzzzzzzzzzzzzzzzzzzzzzzzzzzzzzzzzzzzzzzzzzzzz90qwewweeeeeewqw0zzzzzzzzzzzzzzzzzzzzzzzzzzzzzzzzzzzzzzzzzzzzzzzzzzzzzzz",
"zzzzzzzzzzzzzzzzzzzzzzzzzzzzzzzzzzzzzzzzzzzzzzzzzz98qqrrwweeeewrrteereweqwwqwqzzzzzzzzzzzzzzzzzzzzzzzzzzzzzzzzzzzzzzzzzzzzzzzzzz",
"zzzzzzzzzzzzzzzzzzzzzzzzzzzzzzzzzzzzzzzzzzzzzz700qewerttrrttttttyttttrrtweeeweweq0zzzzzzzzzzzzzzzzzzzzzzzzzzzzzzzzzzzzzzzzzzzzzz",
"zzzzzzzzzzzzzzzzzzzzzzzzzzzzzzzzzzzzzzzzzzz6qqqteqwrtyyyuiuiiiiirwiipupuuuuttrereqqqqzzzzzzzzzzzzzzzzzzzzzzzzzzzzzzzzzzzzzzzzzzz",
"zzzzzzzzzzzzzzzzzzzzzzzzzzzzzzzzzzzzzzzzz700ttqttyuiuiippppppppiq5ysppsipipiiuuyeeeeee08zzzzzzzzzzzzzzzzzzzzzzzzzzzzzzzzzzzzzzzz",
"zzzzzzzzzzzzzzzzzzzzzzzzzzzzzzzzzzzzzz47wrrqryyuiippsssssssssteq990rrpsssassaapiiiiyteee09zzzzzzzzzzzzzzzzzzzzzzzzzzzzzzzzzzzzzz",
"zzzzzzzzzzzzzzzzzzzzzzzzzzzzzzzzzzzz38eqetttupytpspsdhhfsddssw38www90sssssdfdsspauiiuytwqeq9zzzzzzzzzzzzzzzzzzzzzzzzzzzzzzzzzzzz",
"zzzzzzzzzzzzzzzzzzzzzzzzzzzzzzzzzz,8qettryiipaq8yusdgkjffffffde5wew0sssfdffhgdssp0yppiiytqee97zzzzzzzzzzzzzzzzzzzzzzzzzzzzzzzzzz",
"zzzzzzzzzzzzzzzzzzzzzzzzzzzzzzzzy80eeetuipaput359wsffjhfggghhhi80qqyggggggfhffsy080uiappiuyqwq07zzzzzzzzzzzzzzzzzzzzzzzzzzzzzzzz",
"zzzzzzzzzzzzzzzzzzzzzzzzzzzzzzztqe0etuiiaaaa95328pfgghhhhhjhhku8er9rhjhhhhghfffi9889yaaapppyttqq93zzzzzzzzzzzzzzzzzzzzzzzzzzzzzz",
"zzzzzzzzzzzzzzzzzzzzzzzzzzzzztte0ettiiaaasdday975ihhhjjkkkkkkkssjkdpjkkkkhjhhfhd089udsssaappiyewr06zzzzzzzzzzzzzzzzzzzzzzzzzzzzz",
"zzzzzzzzzzzzzzzzzzzzzzzzzzzztwqtetyppaaddffggayaiskkkkkkkkkkkkkkkkkkkkkkkkkkkkkhiyeaffddsssuiiitrwe96zzzzzzzzzzzzzzzzzzzzzzzzzzz",
"zzzzzzzzzzzzzzzzzzzzzzzzzztwrtwyie0psadffggghhjkkkkkkkkkkkkkkkkkkkkkkkkkkkkkkkkkkjgghffddda7eapiuteee8zzzzzzzzzzzzzzzzzzzzzzzzzz",
"zzzzzzzzzzzzzzzzzzzzzzzzzrqwqtuipq8euidgggjjkkkkkkkkkkkkkkklklkllkkllkkkkkkkkklklkkjhhhhddt79uiipuytee9zzzzzzzzzzzzzzzzzzzzzzzzz",
"zzzzzzzzzzzzzzzzzzzzzzzzrrwwtiie00eq0tfhjkkkkkkkkkklllkjgdsuytreertyiafgkklkkkkkkkkkkkjht90qqq9wppiitewq6zzzzzzzzzzzzzzzzzzzzzzz",
"zzzzzzzzzzzzzzzzzzzzzzyw0etyppiq7qeqqdjjkkkkklkkkkkgiw51-**%%$&<<-*$##%-,8tshklkkkkkkkkkdtqetqqaspppiyreq8zzzzzzzzzzzzzzzzzzzzzz",
"zzzzzzzzzzzzzzzzzzzzzyrrqrupsssseq09tjkkkkklkkljsr4*$%<8eyuuiiaddspu81--%$#%-7yfkklkkkkkli9qwqadsssspiureq0zzzzzzzzzzzzzzzzzzzzz",
"zzzzzzzzzzzzzzzzzzzztwrrtupasssdtturtjkkkkkkjft7,,7qtpdggfggfffgfggggfddayq4%O#*7igllkkklt9r98affsssspputerqzzzzzzzzzzzzzzzzzzzz",
"zzzzzzzzzzzzzzzzzzztteeypasdddfgdgkjjjkkkkjdt9qusggggffffgfggfgfgfgfffffgggda7%+o#-qfkkkkadjfeshffddssspuyttqzzzzzzzzzzzzzzzzzzz",
"zzzzzzzzzzzzzzzzzztqwyypassdfghjkkkkkkkkjstyaggggfgfgfgfffgfgffffgfgggfgffgggfpq2#O+%8skkklkljjjhhffdssssiurwqzzzzzzzzzzzzzzzzzz",
"zzzzzzzzzzzzzzzzzrrewyissddfhhkkkkkkkkjsyudggffgfgfgfgfghffhffgggfggfgfggdgdffgjhy-+++%7dkkkkkkkjhhfdussspiyrqezzzzzzzzzzzzzzzzz",
"zzzzzzzzzzzzzzzzt0qtupssdfdhjkkkkkkkkdteagfggffggfgfgfgffffffffddgdfffffgdggfgfggjd;++O+%9hlkkkkkkhiutpssappyrqezzzzzzzzzzzzzzzz",
"zzzzzzzzzzzzzzztrqqypssdffphkkkkkllhy9ifggfffgfffgfgfgfffgfhfdffdddasffgdgfgdgdddfhp-+++O#<ukkkkkkksttrussssiyerezzzzzzzzzzzzzzz",
"zzzzzzzzzzzzzzzwetypssdfhfidkkkkkkdeqdgfgggfgfffggfdgffssfffssshgdddapdfdadfdddsddfha,+OO#O#7fkkkkkkyytafsssapyrewzzzzzzzzzzzzzz",
"zzzzzzzzzzzzzzqwrypsssfghfusfkkkjfiagffgfgfgfgfgfgdddggdsssfgfiigjgdddsdgdsdddapasdstt-O++O+O-ykkkkkggddgfdssapywwzzzzzzzzzzzzzz",
"zzzzzzzzzzzzzqwwypssffghkfipssfdfdffffgfgdgfffffffgdsdggfspfggfsyajggggjkkgdsapiiaastt9#++++#O$0hkkkkkjhggfdaapiteezzzzzzzzzzzzz",
"zzzzzzzzzzzz0wwtpssfghhkkgipspssdggfggfgdggfgdfggffddaagggspshhhgpugkggdfjkgsaiuyipsptq-++++#OO#4dlkkkkjjgdappaaitrezzzzzzzzzzzz",
"zzzzzzzzzzzzwrtipssghjjkkdississfffgffffggdsgdddfgfasdaaghhfsshhhjduidgauypaiuytytippq93++O+O+++@;plkkkkkjgdppsspurqezzzzzzzzzzz",
"zzzzzzzzzzzwqeipssghkkkkkdpissffdfgfdgfgdddsdfffgddfaadgsghhhhfhghgfityiitqtrttrttidhfe3#++##+++++*ukklkkkjappddspytezzzzzzzzzzz",
"zzzzzzzzzzwerupsssfkkkkkkfpusfffgddfgdgddddsdgfddfdfgdsfhghhhhhfdspaiye0qweqqwetuagkhgd8%+#%2#+#+++%tkkkkkjgfffdsaptewzzzzzzzzzz",
"zzzzzzzzzzetypsssfhhkkkkkftrpsfddfdaddffsaaaddfgdddggggghhhhhhsspiyqeeeq889qwrudhklkkffu-O#-731=++++%tkkkkkkjggfdspitwwzzzzzzzzz",
"zzzzzzzzz0erissdffhkkkkkki66tssfdaddaadddsapaaasdfddfggjhkhgffsutqqt09099qqqtajlljhghddd7$;5883%+@+++%tkkkkkkhgffsspyrwzzzzzzzzz",
"zzzzzzzzwqqypssffhjkkkkka3239tiaddddsssaasssasssfghjhhjhjjjdsuiiurw00000qwrupgjlkdssissdt<7889<@+@+@@O&ykkkkkkjgfdaapteezzzzzzzz",
"zzzzzzzzttypssdfhhjkkkkd;%-36qyyiadddssssssssggghhsuiddst0wtwq89qwewqq000eassfsgsiiiuuasp;%4885%@+@++@@*pkkkkkjggfatputqzzzzzzzz",
"zzzzzzzqwtippdfghjkkkkh3+O$=138tiuuiassddfgdspiutq07,,48q83<135566669990eugdaaupiutuuuuaa1+<,*<%@@+@@@@+;dkkkkkjfft4upterzzzzzzz",
"zzzzzzzqeypspppgjkkkkk9+++++@#%0aut02,69eupuq61;-&%*--*&=14654899999900epsgduuutuuttuuupp4#%#@@@@@#@@@@@+4hkkkkg075599ttrzzzzzzz",
"zzzzzzretisiupsgkkkkkt$++++@++%yatt4$$$$&&=;<2,2<=%%%%&%%&*-<<49900900qtddasuyurtuyryuuip9##@#@##@#@@@#@##9kkkkkt,9q47pywwzzzzzz",
"zzzzzzqripssipsgkkkkd=++++++++5auyt-$$%$$$$$$$$$%%%%&%%&&-588869000000wugduuuurtruyutuuipr%############&=#%ulkkku,98>eaprwzzzzzz",
"zzzzzretpssdpsgkkkkj7++@++@++$tpyu8%$%%%$%%$%$%$%&%%%%%&<47689000000qqesjdtyuuuertptyuyipi<@###$######$24&#<fklf7,,446iayrezzzzz",
"zzzzzrtyisddghjkkklt$+++++@++1piut2$$$$%&$$%$$=,55-%&&%&2680969000000wygksttuuuuw0euytyyps7#$#####$##$$*=%##9kkhsd05uypaitwzzzzz",
"zzzzzqripsdfhhkkkkg<@@@@@@@@@8puur*$%*-*$%$$&<9ee6=&&%*48954q0699000qephkatttuuuir99rutuuar%$#$#$$$$$$$$$%$$*pkkklstffsspyqqzzzz",
"zzzzrrupsddfhhkkkkq##@@##@#@$0yyi0%&19w93=$&=ww94-**=<8eusuq5e990000etajkpttttuuuppywwuuupi-$%$$$$$$$$$%$$$$$4jkkkkhhgdsaptezzzz",
"zzzzwrpssdfghkkkkf=#2%##@###$7qti,$=9rtre9;,497q00retsfhfkkd09w00000qtsjkuttttrrrrttuutupps6$$%$$$$%$$%%$%%%$&ylkkkjhgfsspyqzzzz",
"zzzqqtsssshhhkkkk0$*732=#####,5tt;$*6eeew9689eufhhhhkkkhpshkp6qq00000qphjutyyyuuuuyuuuuppssq%%%%%%%$%%%%%%%%%%4hkkkkjggdsairezzz",
"zzzqwyyiy0rfkkkkg,,7897%##$#$=,tr61&-36964790dhhhhhhdsy0990ud09qq00000ughytyyuuuiaaaappipsdt*%%%%%%%%%%%%%%%%%*ylkkkjhfdssptezzz",
"zzzqru54669hkkkke%17991$$$$$$%3ssspe0weq2;776uyrw0q052=&-,47re70q00000eghytyuuuuupsssssaiusu=&%%&%%%&%%%&%&%&&%5jkkkkhhfdssuezzz",
"zzztusw,0q9dkkkh1$$3975%$$$$$;thhhkkjgst<*66&&&$$#@@@@&<=$;50wq8q09000qfftttyuippsspiupaappp<%&%%&%%%%%&&&&&&%&-pkkkkjhgfsaiewzz",
"zzwepp6;44,6skkr%$$,1%-%$$$$$=qywwweew6<$&90;+++@+++$2qut4#<9eee000000qsdttttyuuuuiisassaaps4%&%&&&****%&&&*&*&&9kkkkkhgfdsptqzz",
"zzqtiw4426rifkh4$$$&&$$&%%%%%%;71$@@+OO@o=ypt1#O$$#&-1458w4*8erw0090900sdtttuupppasfffsspppsq&&&%*%*%*%**&*4<***2fkkkkjgsdssyezz",
"zzrusssi5skkkks*&$$$$%%$%%%%%%%7<O%;=$Ooo5ssw<$o@@%=2$oo@&--6rew0089000sderttuuppasaspsdddsst**&**********-00583=ylkkkjfyuuyurzz",
"zzwusdffihkkkkq$$&&&%%&%%%%%%%=5;@44;&@@$yspw61$@*@-e=X@-84=;5q99780909agerrtuyuyuiupsfgdsssu=*&*********>7wee0<*8jkkkjsyttuirqz",
"zwtpssfghkkkkh,&&&&&&%%&%%%%%%%2<@$=@ Xo,ssse0041644090rpssr88887668099ugtrrtttyyupsdgdsputpu;&********=*4qeee9;=>fkkkfpyttsatwz",
"ztyasffhjkkkka=&&--&&%&&*%%*%*%=1@O5,$*-0pfu00we9rw9eyuuipiureyw8880909ugpteryyuisfgfw*8wtuuu<*=**=*====*=>0rew3=-ulkkjdapssaurz",
"zrussdfhhkkkkw&&&***&&&&%**%*%**;$,60qeqrss08qeryue09669tirrryerq990999tgfutttisfsutq3+49tytu<*=*==-======-892,,-=0kkkkkggfssuez",
"zqisddhhkkkkj5&**&&&*&&&*%*****%*$6qq006ysr89qeeidt69qqwtttttttwww09999tgdspuuyaq**3qq%39tuuu2=--=-=*=-*-==,<-----4jkkkkhhfdsptz",
"ztpsdfghkkkkf<&&*****&*&*%**%*****8446w8upq90qweyss0;<,9tturteeeq099889egdsauyw4#*4qrw=48tupa4=-------------------2dklkkhhfdsitq",
"etasgggjkkkkp=*****-=************<qwqw96iuw0qqwetipiw89eeerwq0098767790eddssut6%OO-9ww,79yiia7------;-----;-----;-;pkkkkjhfdsptw",
"wtasgggjkkklt*****=72*******=*===866774qsptwq00wryiiutq9997666666677890qpdassu9$#O+5req6wypaa8-;-----;;;---<-<;<;<;rkkkkjhffssyw",
"qtasdghjkkkkq*==-<4e81<-=*===***-qq4787ufhpw4866wuiuutq8644444556679900qepaaatp,*3*5wrq7tupadq;;;;;;;;;;;<;<<;<122<0kkkkjhfdsayw",
"eyasdggjkkkj6*==5werrw01====*----5q9990pfgp09ii,,yuuytr05,4,44557890000q0q0qqwy5<q69qr7qtippdi1;;;;<<-<<;;<<<<<498<8kkkkjhgfssur",
"ruasdggkkkkh4-=-;6rrrq3===-=-=--==4909eupir8tipw&5yyyyrq84444468890000000000072=5rwq8w6ryiipas5;;<<<<<<<<<<<<<:408,6hkkkkhgddaut",
"russdghkkkkg,---=<wrt0----=------%<9q64795-*<5ww5;0tyytw954445690000q00qq0000<$0siw5e6qtpipppde<<<<<<<<<<<<<1<>>,225hkkkkhfdssut",
"russfdskkkkf1-;--,q670<=------;;;&<9q8$@$@oXXo&;rw<wtrrw0854668900000000000q9tphju7r65tupipiupa3<1<:::::::>222222225gkkkjhtyssir",
"ttruattjkkks1--;<22--1<----;;;;;<*1908*$XXXXXXo<pd6,wereq0968990q0000q0q0000qpasjfu,2wtiupiptud01111:112222222,,,,25fkkkkf9qssiw",
"ty5880tjkkks<<-<<;;;;;;;;;;;;;<<1%288,33XX#%qqeaddp,7qeeqq00990qq00q0q00q000quuyfa2+8rypuiiatyai32222222222222233225fkkfpe890wrr",
"tiq249qrfkka<<<<;;<;<;<;;;;<<;<<1-175,t,###3dddddddq28qeeqqq0000q0000000q0097tttt7#+8tipiyiiiead02223323323334333336fkjw359954wr",
"ti0<,450aklp2<<<<<<<<<<<<<<<<<<<1-<328t<++#7ddaappadq19qeqqq0090q00000000008%2871#++7yiiiypiariae4323333333333334336gkkht3663wpr",
"tw1,>4thkkka2<<<<::<<<<<<<<<<<::2<;<,et1%,2yddauuuiad720qeqq0000000q00000q07OX++O+@@2yuiiiypiytdt7333333434343444446gkkkh9775tpr",
"rtriq4skkkla,111:111>><1:::<>>>>21-=7et7qst87eppyqeypp37eeqqq000000000000004oooo+@#@-tuppiuiuurft0443434344344444547gkkkg0er7epe",
"ypssswskkkks31112211>>11>>22>>2222-;0q7#$;%$%%=7qq<7tpt7qqeqq000q00q00000002o+@@@-4%$0uippiiuutduq444444545555454559hkkkhsffpyiw",
"tisdffhkkkld412,,,,2,22222,2,,,,32<301%%;17tpy832,-#%qytqqqqq00000q00009000<=#++%803$<yipapaiiufpe745555555555555550jkkkkhgfsair",
"rusddfhkkkkg5,,,,,,,,,,,,,,33,,33,173#%qqtq088900ttq31qteeeq000000000009800<85%#40002%3uaaasaiaspw55555575555755666ejkkkjhffsair",
"zussdghkkkkh7,333,333,,3333333333317123##+OOOO+%7qtyitqqqqqq09000000987780820q87000002%-7q0009977555557757575777667rkkkkjhgfspyw",
"zyssfghhkkkj933433333333333334443317qq1XXX+###+%2790qeqq99977700000877779074qq9900q0q8%%137777777757775778577757677ikkkkjgffsayz",
"zypsdfhhkkkkr3444444344344444444332300%O+<qtipe8755357897777770900877578005700400q007288++-77777777777770rq97777778skkkkhhgfsprz",
"zrpsdfhjkkkky4444444456444454545732<773%;0eysdfdyq97733575733700087577890930q7500q923qyu%.+<777777777779ruy08777880gklkkhggsapez",
"zrisdghhkkkka545554560q745444454733=-2qt750qyipsdauytq7<==-128000775780007500200q7-7ushli@@%787777888889qrq0887998wjkkkjgffsauwz",
"zzissfhhkkkkg85555557qe064656666377%#7tt53739qyuiipppaut8-$%380097778900037045003-egjlllf%@#2989888888889098999999ykkkkjfassaiez",
"zzypsffhjkkkjq555757690766666666777<=3qq3<2;-9qttttqqqqqqe878q00877900007<07200;3allllll7#@@%899999999999999999900skkkkhy0aaatzz",
"zzupssffjkkkky7575666767666676677777;$383;-=-33000083=%%39870q0078800000;48-77%7jllllllu%@@@$%9009099090000090000wgkjaau77paprzz",
"zztpasdafjkkks86777777777776777777783%#-<=$$#$-3773<$OX+%=<3000778900003=9112%ekllllllg-@@@@@#2000000000000qq00q0tkkjr5700wwrrzz",
"zzzuasauuskkkhq87777777777777777778882#X##O#O+@$%%#OO%=%#X$708837000008%72%%=illllllll3@@@@@@@@7qqq0qq0qqqqwewqqqakkkh026867wezz",
"zzzuaatttsjkkky888887878887778888888883$XXoOOOooXXoO#131--1777,1900009-=1@#2flllllllj7@@#@#@$@@%9qwwqqwqwwrpatwwrgkkkkt5558ytzzz",
"zzzrpsptysjkkkd9880088888888888889889998<#...X.oooOO$%%%#%-=-1%3000991O#O#8hllllllll8#@#@#@#@@#+$-49qewqwwrafteeikkkkjw8950irzzz",
"zzzeussssdhkkkkr80qq9998899998980880800097%oXXXXoOOoOOOOOOO+#+$70009,+XO-rhlllllllk9#@@@@@#@#@@O@@@%-40eeetuyrrrfkkkkhipsrwyqzzz",
"zzzztassfhhkkkks00qq09990099998000000000007%OOOXXXOOOOOOOOOOX+%89904+X$5ujlllllllhq#@@@##@@#@#@+@@#@@#%;7wrtrrrukkkkkgffsairzzzz",
"zzzztpasdhhkkkkht00009000qq0909000000q000qq9%OOOOOOOOOOoOOoo+#=8995@O1wuklllllllgy7+@#@#@#@##@++@@@@@@@@#*,9ettfkkkkjgfsspiwzzzz",
"zzzzzuasddhhkkkkaq00q0000que000qqq00qqqqqqqqq1#OOOOOOOOOOoOO#+1894$-0tugllllllla3ya3#@#@#@#@#@++@#@##@##@@@$-4tjkkkjhffsapirzzzz",
"zzzzzrpssfhhkkkkjt0qqqqqqquytttqqqeqqqeqqqqqeq8%OOOOOOOoOOOO+#<71%4ttugllllllly%;ajp1@@@##@#@@++###@#@##@@##@%ilkkkjgfdspirzzzzz",
"zzzzzrupsddhhkkkkdqqqqqqtyiiuuqqqeqqeqeqeeeeeet8%OOOOOOOoooO#+##%9ttujlllllllr$@7glhi<@@@@@@@@++@@@#@##@#@@@@5hkkkjgfdsapyezzzzz",
"zzzzzztpssfhhkkkkktqqeqtuuuiutqteeqeeeeeeeeqeeee5#OoOOOO.oo+#O#-wttujlllllllq$@#wjkkhy<#@##@@@+@#@@@$$**#$*=;sklkkyifsspirzzzzzz",
"zzzzzzeussdfhhkkkkfttqtetyuuuteeqteeeteetetetet0#30#OOOOoXoO#*8tttihlllllll0#@@%ijkklgt%@@#@@+O@#%-2600=#4qwpkkhjs70dsspyqzzzzzz",
"zzzzzzztpssdfhhkkkkatqtqetyttyteteettetetettteq=.qly2$OOOO#-7ttttpklllllll8#@@@<dkljljfe%#+OXO%17eidfp1#&9qyhkhq8776eetitzzzzzzz",
"zzzzzzzeusssfhhkkkkjyttttttttttettettttttttttt3X.ylgpe%#%3etyttyakllllllj7#@@@@7hkkkljhdq#@=7qusgjkks2$-5erflkku435347eyezzzzzzz",
"zzzzzzzzrpssssshjkkkgytttttttttttttttttttttttq# Oplge*O+#%tyiafklllllllj7@@@@@$ejklkkkjgaetadhjjkkkd610erysjkkkjr1216yuezzzzzzzz",
"zzzzzzzzwusssi9ygdajkdttttttuutttytttytyttyyy-  +dlp%OOOOO8gkllllllllll7@@@@#@%pkkkkkkljghjkjlklkkg00eterihkkkkji4627ieqzzzzzzzz",
"zzzzzzzzzrupspq9q0rjkksytyyysduutyyyyyyyyyr0,o  @gh;OOO+OO=glllllllllj5#+#@###;dkkhjkkkkkkkkkkkklgq0eeqerfkkkkkhuwye7twzzzzzzzzz",
"zzzzzzzzzzuipy9ww9pkkkkpyyyupsuyututyyyr02&@oX  =j0OOO@@%%%tllllllllk8###@#@+#5jkhtdkkkkkkkkkkkkje900qqerfkjkjhgsssptrwzzzzzzzzz",
"zzzzzzzzzzeyt780q9skkkkhayyuuttutuuuyw4*@+++X   4s&O+&====&:jllllllk8#+#@@+%;0ajkgethkkkhgjkkkkje000eeeeeujkjsffdsaitwzzzzzzzzzz",
"zzzzzzzzzzzrq85447whkkkkhiyyyutuuue6-@+++@@O   oy8O&===&%#++qlllllk9#+#+#%3qajkklserygsyryklkkjt9qqeqqqeetdjuuddsapyrzzzzzzzzzzz",
"zzzzzzzzzzzztyt,7weskkkkkhpyuyytw2&@+++@@++XX X;s&O*==&++Ooo&gllllq$#+#*5tdjkkkkkpererrewfkkkku8weqqe0qweeuttsdsapuwezzzzzzzzzzz",
"zzzzzzzzzzzzrty8isdfhjkkkkhpyt8-@+++@+@@@@OX  &u0OO+@*&OooO&4illlu$##=8ufjlkkkkjsrwrrreqikkkks7wtewwqeweewqeadsapirqzzzzzzzzzzzz",
"zzzzzzzzzzzzzttussdfghkkkkkht-@@++++@@@++@O  @0s,;=&+&@OO=qyeeglu%$-8ajkkkkkjgieqqqqwq0rjkkkgw4qweeewwetuwqussapirwzzzzzzzzzzzzz",
"zzzzzzzzzzzzzzetpssdffhjkkkkh8$+@+@@+@+@@+XXo5ipy6*@@=$&6skkdyui*+%tjkkkkkkkht8990qq009skklkfr-9rqwqqeudttupsappuqzzzzzzzzzzzzzz",
"zzzzzzzzzzzzzzztyssdffhhkkkkkkr=++++@@@+++X.3yghr=@@$=&3jllllku*#$*3tsjkkkkkkjaq8990997ilkkkhp48eqewupat99tdspitttzzzzzzzzzzzzzz",
"zzzzzzzzzzzzzzzrtupsfhhhhhkkkkks5@+O++++@+ %shls:@@@@=*>gllllf:#1qttq0eajkkkkkkju999898whkkkksreqyfdiq88789wiuuwqzzzzzzzzzzzzzzz",
"zzzzzzzzzzzzzzzzerupsdgffhhhkkkkjr-+O@+@@XXwllh5&@&+$==;dlllh,#,qt099009qugkkkkkp9999767akkkkhuttdjhdi078879wtwtzzzzzzzzzzzzzzzz",
"zzzzzzzzzzzzzzzzztruussdfgsrskfijkf0=+++@X%hllr=*=@@$==-allk6@*0q0qq09904<7tgjkkp89yhsy0tkkkkjsahhgddst0tuw0ww0zzzzzzzzzzzzzzzzz",
"zzzzzzzzzzzzzzzzzzetupssdfs89rwrjkkks8*@+X7lld2==&@&&&=;plkq#@,eqqteqt0qe=#*5dkki8yjkkljhkkkkkdpffdddaiuiiurewzzzzzzzzzzzzzzzzzz",
"zzzzzzzzzzzzzzzzzzzrrupsssdwwwwrkkkkkks8&@plk0=-=&&=&==-slt$@;tittqtqqqe9%+@=skkuyklkkkkkkkkkkhsddddsappiutq0zzzzzzzzzzzzzzzzzzz",
"zzzzzzzzzzzzzzzzzzzzwripssp0wwrwihkkkkkkdtkls<===---&==;di%+%0eqqeqqqqeeq*@@*alkhjkkkkkkkkkkkkksadaaapiuurrrzzzzzzzzzzzzzzzzzzzz",
"zzzzzzzzzzzzzzzzzzzzzttypu6588889pkkkkkkklkki4;==---==-:y-@@<qqttqeqtqtqq,@+*skkkkkkkkkkkkkkkjgspaaapiiurqqzzzzzzzzzzzzzzzzzzzzz",
"zzzzzzzzzzzzzzzzzzzzzzeryyee738isfhjkkkkkkkkkhiw6,;-===-<+++>werqeqqqqeq9%#*3dkkkkkkkjjkkkkkjpuyuppiputwwwzzzzzzzzzzzzzzzzzzzzzz",
"zzzzzzzzzzzzzzzzzzzzzzzzttiie2rddffghhkkkkkkkkkkjgpr94>=#@@+,ewwqqqeteqytquffhkkkkkkpaggfgggfueruppiuur09zzzzzzzzzzzzzzzzzzzzzzz",
"zzzzzzzzzzzzzzzzzzzzzzzzzetyu9ysssddfpsffkkkkkkkkkkkkgdpyw09tpiaaasdgghjjkkkkkklkkkjqqsspsddsueeypiutwrzzzzzzzzzzzzzzzzzzzzzzzzz",
"zzzzzzzzzzzzzzzzzzzzzzzzzzetyuipsssspeqwphhkkkkkkkkkkkkklklkkkkkkkklkkkkkkkkkkkkkkhsq0098asssauuuuteeqzzzzzzzzzzzzzzzzzzzzzzzzzz",
"zzzzzzzzzzzzzzzzzzzzzzzzzzzzryuippsy080qifhhhkkkkkkkkkkkkkkkkkkkkkkkkkkkkkkkkjjjhaq0qw07tsspppiuyrrqwzzzzzzzzzzzzzzzzzzzzzzzzzzz",
"zzzzzzzzzzzzzzzzzzzzzzzzzzzzzttyuppp069qwsffgfhhjkkkkkkkkkkkkkksgkkkkkkkkkjjjjjggp980q9qppppiiuttw0zzzzzzzzzzzzzzzzzzzzzzzzzzzzz",
"zzzzzzzzzzzzzzzzzzzzzzzzzzzzzzzetypy976russddfhfgghhjjjjkkkkkkh0ykkkjkjjjhgggggffdsw6980uiiuuyrwrezzzzzzzzzzzzzzzzzzzzzzzzzzzzzz",
"zzzzzzzzzzzzzzzzzzzzzzzzzzzzzzzzertytyqyspsssdsssfffggghghhgaay90ddgggggggggfddddsst4907ruyyteeqzzzzzzzzzzzzzzzzzzzzzzzzzzzzzzzz",
"zzzzzzzzzzzzzzzzzzzzzzzzzzzzzzzzzzrttuuuipisssuusssfffgfgggsq90wwq0yffffdfdddssssapt9yutttrqwrzzzzzzzzzzzzzzzzzzzzzzzzzzzzzzzzzz",
"zzzzzzzzzzzzzzzzzzzzzzzzzzzzzzzzzzzztrytuiipipyusssghkjsdssdp00we0qpsdssdgfssaaaapuuuuutrweqzzzzzzzzzzzzzzzzzzzzzzzzzzzzzzzzzzzz",
"zzzzzzzzzzzzzzzzzzzzzzzzzzzzzzzzzzzzzztttyuuiiiisspskkjssssssw800qisssasghgspppiuiuutrtwwqzzzzzzzzzzzzzzzzzzzzzzzzzzzzzzzzzzzzzz",
"zzzzzzzzzzzzzzzzzzzzzzzzzzzzzzzzzzzzzzzzzrytyyuuuuifjjssppsas96967ypppppsssppiiuutrrw0rrzzzzzzzzzzzzzzzzzzzzzzzzzzzzzzzzzzzzzzzz",
"zzzzzzzzzzzzzzzzzzzzzzzzzzzzzzzzzzzzzzzzzzzrtrrtuyuiippiiiiiiqeut9tuiiupuiuyytttqwwqezzzzzzzzzzzzzzzzzzzzzzzzzzzzzzzzzzzzzzzzzzz",
"zzzzzzzzzzzzzzzzzzzzzzzzzzzzzzzzzzzzzzzzzzzzzzettrrryyyuuuiuuuuyyyyyyyuyyttreqwr0qzzzzzzzzzzzzzzzzzzzzzzzzzzzzzzzzzzzzzzzzzzzzzz",
"zzzzzzzzzzzzzzzzzzzzzzzzzzzzzzzzzzzzzzzzzzzzzzzzzzrwtrerttrtttttttttretrrereqqzzzzzzzzzzzzzzzzzzzzzzzzzzzzzzzzzzzzzzzzzzzzzzzzzz",
"zzzzzzzzzzzzzzzzzzzzzzzzzzzzzzzzzzzzzzzzzzzzzzzzzzzzzzzzetetwettteteretrezzzzzzzzzzzzzzzzzzzzzzzzzzzzzzzzzzzzzzzzzzzzzzzzzzzzzzz"
};
