/* XPM */
static char *result[] = {
/* columns rows colors chars-per-pixel */
"64 64 46 1 ",
"  c #5C261B",
". c #642E1A",
"X c #66311A",
"o c #6A351A",
"O c #6E3A1A",
"+ c #723E1A",
"@ c #754119",
"# c #794619",
"$ c #7D4A19",
"% c #804E19",
"& c #845319",
"* c #885718",
"= c #8C5C18",
"- c #905F18",
"; c #956617",
": c #9B6C17",
"> c #936318",
", c #976818",
"< c #996918",
"1 c #9E7017",
"2 c #A27417",
"3 c #A67917",
"4 c #AA7D17",
"5 c #AE8116",
"6 c #B28516",
"7 c #B68A16",
"8 c #B98E16",
"9 c #BD9216",
"0 c #C19615",
"q c #C59B15",
"w c #C89F15",
"e c #CCA315",
"r c #D0A715",
"t c #D4AB14",
"y c #D7B014",
"u c #DBB414",
"i c #DFB814",
"p c #E3BC13",
"a c #E7C113",
"s c #EAC513",
"d c #EEC913",
"f c #F2CD13",
"g c #F5D112",
"h c #FAD612",
"j c #FDDA12",
"k c None",
/* pixels */
"kkkkkkkkkkkkkkkkkkkkkkkkkk9q9q0qwwq099kkkkkkkkkkkkkkkkkkkkkkkkkk",
"kkkkkkkkkkkkkkkkkkkkkk999qwrrrtrwrteeeqq99kkkkkkkkkkkkkkkkkkkkkk",
"kkkkkkkkkkkkkkkkkkkk99eeryuiupyw8etiuiutree9kkkkkkkkkkkkkkkkkkkk",
"kkkkkkkkkkkkkkkkkk7qertwtpddasu799ysasaprtteq96kkkkkkkkkkkkkkkkk",
"kkkkkkkkkkkkkkkk99etuuq30sdffffw0wdfdddi79yuyrq8kkkkkkkkkkkkkkkk",
"kkkkkkkkkkkkkkeqweuiaauqrgghhhhdfdghhgfdeeaaiyteq7kkkkkkkkkkkkkk",
"kkkkkkkkkkkkkqqrwquadggghhjhhhhhhhhjjjhhgfddaqette9kkkkkkkkkkkkk",
"kkkkkkkkkkkqqete99rggghjhdue07577657wifjjjhgt99euyeq7kkkkkkkkkkk",
"kkkkkkkkkkeqeupieeihhhduq65qryyuptq751,5tfjja99ipputq0kkkkkkkkkk",
"kkkkkkkkkwqripsddgghdpyuiasddddddddddae3*-qdgdsddspite0kkkkkkkkk",
"kkkkkkkkqqtppdghhjfiiaddddsddssdsssssdddi1O*qgjhhsuiptw0kkkkkkkk",
"kkkkkkkqqeppsphhgatidddadsdsadaasapsasapsp1oO,uhhdttppyeqkkkkkkk",
"kkkkkkk0tisddisfdaaddddddaadpadpasssfspiipe=Oo#9ghfddaitqkkkkkkk",
"kkkkkk0eiafgfuipsddadaaaaapadaafspaapputrur3OOO@3djhfaiitqkkkkkk",
"kkkkk0eupdhhfupsaaadaiasaaaadfddspteqqqetsd9@@$OO;ajhdpaprqkkkkk",
"kkkkketpsfhhs9yaaaaapiaasadffgditq9989esggdu--4=OO>ajhgdpiekkkkk",
"kkkkqepafghf3,8tpppppppsdapauyeqq9879tadsuui615=O+O<dhhfdutqkkkk",
"kkkkeuisghh5O#*5tr9wtuw841,:11155589yauytrty8$&$+++O3fhfr7qwqkkk",
"kkkqtiuahhe@OOO6y5$$&***&#$#&:36888eauterrtye#@@+@+#$0hh755tqkkk",
"kkkeipsfha*OOO&rr>####$*>&$&1567889ydrtrqeety-@@#@@&&&igw50ur0kk",
"kkqtpsfhh5+O++;tq&>2=$;74*=4w97789qasertrqery5@#####$#2ghaspuqkk",
"kkqipdghp*;&@@=06&6w728etypsaaq9889aaeeertttue$$$##$$#%thhfaiekk",
"kkw08uhh717>#@$9r668250utr9429e6989uirttuiuuuy=$$$$%$%$2ghgdptqk",
"kwt430fp*=:*##*eytr6=4=##@&21>99888tueryuuiiuy>$%%%%%%%*ijhfaiqk",
"kwt98pf0#$#$$$$:=%%O&t4++$=*:>7q868eyetyuipaii3$&$$&&:2>8hhfiuek",
"ktasdhf:%%$%$$$=&=#O5p9<-<4<7647658euqeryuppiu6&&&*&>7q2:dhaettk",
"etadhhi*&&%%$%%&&;12rt8qw99qyteq886qpreyuu91qt7$*****272=ihfppuq",
"qusfhhq&&%&%&&&&*468r08quw27eeqq966qsirq>38>9y8=*===*->*=qjhgaiw",
"eidfhh6%&>=&&&&&;667yq80rtq897665559ipy:O,96euq========>=6hhfspe",
"eisfhg2*187<****166qse969te832235699qee5,399eut>--->->><25fhgspe",
"tpsghd<*:q0;**===47802692qtq422569888853e889yuu4>>>>;>;:44fhfspr",
"etusjs<=;22-===>*26&OXO>w5qq7557888989qua85eyyuq,>,,;<<<<2dhdeie",
"r65rga,->--->=>>=242o*qtaq5q99799888979te*7yyyty3<<:<::::3da967w",
"e31wga:>>;>>>>>;>>56*4piyu96q978888885&=$@7yyytu81112:2224dgq47r",
"rtwahs1,,,,,,,,<,>72223996e79997888883oo#$2yyytye222233336djptee",
"tpsghd3::::<<:::::<=2563634qq997988874-$15>9yiyye333333337ghfdpr",
"risfhg5111111122124&@$$&50q9976997657575885=3776534555544qhhfape",
"risfhg91222222222:5*-9te85444347755575768558$=555555q9555ehhfduw",
"kusfhhw3336733333;,946quute7:=486559555658ah3#36566788767ihgapuk",
"kypdghu44556444452>5:=:8q932556856963324yjjd=O=6777778779dfpqutk",
"kypiahd75555555556,$$@@&>&##$:8567831=3sjjj3++@<89989009eha758wk",
"kkuryhhe66656566667:#..XXX$*$-:<794$$5fjjj6@+@+#<6900rtqphg950wk",
"kkypaghp8977767777886&X.XoooOOO;95#$qhjjh8@@+@@O+#*27erefhfpyekk",
"kkrpdghge8899q97988997>OooooXoO15-1tjjjfr3@++@+O++++$-4uhhfaiekk",
"kkkupdhha999wteq9009qq02+oooXo+*,9ihjja<9d1@++@O++++++=dhfdpywkk",
"kkktpsghht0qrteqqqqqqqw9-&oo.o$:qujjja=$yja<@+OO$*:=%2rfsepuekkk",
"kkkkupdghdeweeewweweeee=<p2+$20tphjji*O-djhi=$>6rpe=3ygp638eekkk",
"kkkkrppysfseeereeeeerr7.4d;O#wdgjjjp=++3hhhgiidhjp79rdjg8:8wkkkk",
"kkkkkyy90phprrprrrrw71# 75o++7jjjjp*++@qgshhhhhha80qyhhdyrqkkkkk",
"kkkkke946phgprtrr03&@o X6$$%$&pjjp*+#;qfdeaaphhs099qedpapywkkkkk",
"kkkkkke9wpghgpe6>#oO+X >2@%@o+9jd>$2tdhgiqwqihdq9q9qqeupuwkkkkkk",
"kkkkkkkeuadghgq#o++O+.$e4$#$2yti,-tgjhsq999eght4q9qrerpurkkkkkkk",
"kkkkkkkwrpddgjgw&o++oOea:+$>fjf2-6rpgjgp9660gha9wtrq7wyewkkkkkkk",
"kkkkkkkkerpadpddp4#+o3j9%+%>sj4;99977tfhe9r0sjgupdi999qqkkkkkkkk",
"kkkkkkkkketpar0eghu3%up-&$%>a9%8qq99:$9htshgghhasapyyw0kkkkkkkkk",
"kkkkkkkkkkwtu979uhhhpgq=*=*>8#1qq9qq2O7hghhhhhgaiiutw0kkkkkkkkkk",
"kkkkkkkkkkkwrw5eafghhhfpw62>%#4qq9qw75uhhhsffgpryyrw9kkkkkkkkkkk",
"kkkkkkkkkkkkkreypputshhhhhfsutpsadffghhhhsqeypueyrwkkkkkkkkkkkkk",
"kkkkkkkkkkkkkkeruy78udfghhhhjjjfghjhhhgga088tiytw0kkkkkkkkkkkkkk",
"kkkkkkkkkkkkkkkker00upaaddfgffseudgfddsspr68rtrqkkkkkkkkkkkkkkkk",
"kkkkkkkkkkkkkkkkkkettuitipfdspw90eapsspiiywewqqkkkkkkkkkkkkkkkkk",
"kkkkkkkkkkkkkkkkkkkketttupgaipe78tiisputrewqkkkkkkkkkkkkkkkkkkkk",
"kkkkkkkkkkkkkkkkkkkkkkwerrtttteewettrrew00kkkkkkkkkkkkkkkkkkkkkk",
"kkkkkkkkkkkkkkkkkkkkkkkkkkqeeeeeeeweqqkkkkkkkkkkkkkkkkkkkkkkkkkk"
};
