/* XPM */
static char *result[] = {
/* columns rows colors chars-per-pixel */
"16 16 128 2 ",
"   c #784519",
".  c #794619",
"X  c #7A4719",
"o  c #7D4B19",
"O  c #855319",
"+  c #865418",
"@  c #875618",
"#  c #875619",
"$  c #885719",
"%  c #8A5A18",
"&  c #8B5B18",
"*  c #8D5C18",
"=  c #8D5D18",
"-  c #996917",
";  c #996A17",
":  c #9A6B17",
">  c #9B6C17",
",  c #9D6E17",
"<  c #9E6F17",
"1  c #906018",
"2  c #946418",
"3  c #956618",
"4  c #966618",
"5  c #966718",
"6  c #976718",
"7  c #9B6C18",
"8  c #9F7117",
"9  c #A07217",
"0  c #A17217",
"q  c #A17317",
"w  c #A27417",
"e  c #A47617",
"r  c #A57817",
"t  c #A67817",
"y  c #A77917",
"u  c #A87A17",
"i  c #A87B17",
"p  c #AA7D17",
"a  c #AB7E16",
"s  c #AB7E17",
"d  c #AC7F17",
"f  c #AE8116",
"g  c #AE8216",
"h  c #AF8216",
"j  c #B08316",
"k  c #B08416",
"l  c #B18516",
"z  c #B28616",
"x  c #B38716",
"c  c #B48816",
"v  c #B58916",
"b  c #B68A16",
"n  c #B68B16",
"m  c #B78B16",
"M  c #B78C16",
"N  c #B98E16",
"B  c #BA8F16",
"V  c #BB9016",
"C  c #BC9116",
"Z  c #BD9216",
"A  c #BE9316",
"S  c #BF9415",
"D  c #BE9416",
"F  c #BF9416",
"G  c #BF9516",
"H  c #C09615",
"J  c #C29715",
"K  c #C29815",
"L  c #C39915",
"P  c #C49A15",
"I  c #C49B15",
"U  c #C69C15",
"Y  c #C69D15",
"T  c #C89E15",
"R  c #C99F15",
"E  c #C9A015",
"W  c #CAA015",
"Q  c #CAA115",
"!  c #CBA115",
"~  c #CBA215",
"^  c #CCA315",
"/  c #CDA415",
"(  c #CEA515",
")  c #CFA714",
"_  c #CFA615",
"`  c #CFA715",
"'  c #D0A814",
"]  c #D1A814",
"[  c #D1A914",
"{  c #D0A815",
"}  c #D2AA14",
"|  c #D3AA14",
" . c #D3AB14",
".. c #D4AB14",
"X. c #D4AC14",
"o. c #D5AD14",
"O. c #D6AE14",
"+. c #D6AF14",
"@. c #D7AF14",
"#. c #D7B014",
"$. c #D8B014",
"%. c #D8B114",
"&. c #D9B114",
"*. c #D9B214",
"=. c #DAB314",
"-. c #DBB414",
";. c #DCB414",
":. c #DDB614",
">. c #DEB714",
",. c #DFB814",
"<. c #DFB914",
"1. c #E2BC13",
"2. c #E3BC13",
"3. c #E3BD13",
"4. c #E4BE13",
"5. c #E5BE13",
"6. c #E5BF13",
"7. c #E0B914",
"8. c #E1BB14",
"9. c #E2BB14",
"0. c #E3BC14",
"q. c #E7C113",
"w. c #E8C213",
"e. c #E8C313",
"r. c #E9C313",
"t. c #E9C413",
"y. c #EBC613",
"u. c None",
/* pixels */
"u.u.u.u.u.Y o.o.' #.! u.u.u.u.u.",
"u.u.u.!  .1.6.3.>.6.8.} W u.u.u.",
"u.u. .4.t.y.3.3.8.%.L ) 3.| u.u.",
"u.{ w.2.e.r.r.q.-.=.E 1 P w. .u.",
"u.9._ 8 N k d b H o. .3 o ^ [ u.",
"Q :.0 = u q i n I o.$.i X > 3.$.",
">.( # O , c a m A ` ~ v @ ; $.7.",
"0.U 6 & t v J x N G M K 3 2 ! 9.",
"O.L 5 5 > u S B N t s ( p 9 ! O.",
"w.X.r r < e z g z f F y x v &.<.",
">.5.V v h *   % d  .C . 4 Z 1.~ ",
"u.q.$.! T l + : =.D E w w L O.u.",
"u.! 1.o.7 $ & Z U J -.6.Q *._ u.",
"u.u.>.@.c j - m Z ] ,.r.o.R u.u.",
"u.u.u./ -.6.-...<.5.:.&.' u.u.u.",
"u.u.u.u.u.+.9.O.o.;.! u.u.u.u.u."
};
