/* XPM */
static char *result[] = {
/* columns rows colors chars-per-pixel */
"32 32 43 1 ",
"  c #67321A",
". c #6B361A",
"X c #6E3A1A",
"o c #713D1A",
"O c #754219",
"+ c #794619",
"@ c #7E4B19",
"# c #814F19",
"$ c #855319",
"% c #885718",
"& c #8C5C18",
"* c #905F18",
"= c #946517",
"- c #9B6C17",
"; c #936318",
": c #976818",
"> c #996A18",
", c #9F7117",
"< c #A27417",
"1 c #A67917",
"2 c #AA7C17",
"3 c #AE8116",
"4 c #B18516",
"5 c #B58A16",
"6 c #B98E16",
"7 c #BD9216",
"8 c #C19715",
"9 c #C59B15",
"0 c #C89F15",
"q c #CCA315",
"w c #D0A715",
"e c #D4AB14",
"r c #D7B014",
"t c #DBB414",
"y c #DFB814",
"u c #E3BC13",
"i c #E7C113",
"p c #EAC413",
"a c #EEC913",
"s c #F1CD13",
"d c #F6D112",
"f c #F9D512",
"g c None",
/* pixels */
"gggggggggggg80qqqqq9gggggggggggg",
"ggggggggg70qeuuq7tutqq8ggggggggg",
"ggggggg00etqydfptddpqyr97ggggggg",
"gggggg0q8uddauttteuaddwqe9gggggg",
"gggggqruyssueetyyeq67yuyitqggggg",
"ggggqtpdduipaappppaiq*3astyqgggg",
"ggg9taiippappiipiiitt3X*tdptqggg",
"gg9raftuppuipasit98eie&$#efpt0gg",
"ggqudt;4rqew877666eutt1&X#tde0gg",
"gqtps=.,5$%&$#-460tqqe2OO+>i89qg",
"gwif0@o211>467q76eteqe9@+@+6sieg",
"g89p<=+<841212275qeetye&@@#;adtg",
"qryq#@@%*#5-%>1559eetut-#$:1qstq",
"eaf4###$;20806q957t0649<%%=>5die",
"tas,>>$$17w6q84337e5>6w4&&*;2sst",
"epp-1<&&>2;<6923567887t9:::>2aue",
"69u-;*;*:1*0e7767741:7te2--,2i87",
"eua1::-->-<25686662$;4ee611<4sue",
"tss4<<,<<::45535544442<432537dst",
"rps81422<<<602<34423ei&<5565eare",
"gtst42444-+o@#&14<,tf5O@2699ut6g",
"gtps9566561+ ..%1<ifq+Oo+$<qdpeg",
"grift9q08905$..%7ss3e1oo#$$qiyeg",
"ggtiprqw0qq-5%;tfs-&sa69t5qa68gg",
"ggw9wsre93*o-+*ss<#8ppddq7uae9gg",
"ggg0tss5@o *;@-r45ii09ae89qteggg",
"ggggrist1O$q%&u62qti90strq8qgggg",
"gggggre9peq7$*4197:eadfsut0ggggg",
"gggggg00uidpt94qttesstpteqgggggg",
"gggggggee9upsddiiddst7eq9ggggggg",
"gggggggggqetupu90uute99ggggggggg",
"ggggggggggggqeeqqwqqgggggggggggg"
};
